<svg width="375" height="176" viewBox="0 0 375 176" fill="none" xmlns="http://www.w3.org/2000/svg" xmlns:xlink="http://www.w3.org/1999/xlink">
<mask id="mask0_1119_18551" style="mask-type:alpha" maskUnits="userSpaceOnUse" x="0" y="0" width="375" height="176">
<rect width="375" height="176" fill="#D9D9D9"/>
</mask>
<g mask="url(#mask0_1119_18551)">
<g filter="url(#filter0_dd_1119_18551)">
<path d="M369.431 151.194C468.226 135.733 419.281 123.052 416.781 64.2243V-97H19.802L-54.1941 8.27897C-58.1939 40.3204 -75.3508 151.194 64.6419 151.194C193.976 151.194 245.937 170.52 369.431 151.194Z" fill="#1DA1FA"/>
<path d="M369.431 151.194C468.226 135.733 419.281 123.052 416.781 64.2243V-97H19.802L-54.1941 8.27897C-58.1939 40.3204 -75.3508 151.194 64.6419 151.194C193.976 151.194 245.937 170.52 369.431 151.194Z" fill="url(#paint0_linear_1119_18551)"/>
<path d="M369.431 151.194C468.226 135.733 419.281 123.052 416.781 64.2243V-97H19.802L-54.1941 8.27897C-58.1939 40.3204 -75.3508 151.194 64.6419 151.194C193.976 151.194 245.937 170.52 369.431 151.194Z" fill="url(#pattern0_1119_18551)" fill-opacity="0.8"/>
</g>
</g>
<defs>
<filter id="filter0_dd_1119_18551" x="-177" y="-208" width="728.094" height="496.783" filterUnits="userSpaceOnUse" color-interpolation-filters="sRGB">
<feFlood flood-opacity="0" result="BackgroundImageFix"/>
<feColorMatrix in="SourceAlpha" type="matrix" values="0 0 0 0 0 0 0 0 0 0 0 0 0 0 0 0 0 0 127 0" result="hardAlpha"/>
<feOffset dy="9"/>
<feGaussianBlur stdDeviation="60"/>
<feComposite in2="hardAlpha" operator="out"/>
<feColorMatrix type="matrix" values="0 0 0 0 0.396078 0 0 0 0 0.423529 0 0 0 0 0.933333 0 0 0 0.1 0"/>
<feBlend mode="normal" in2="BackgroundImageFix" result="effect1_dropShadow_1119_18551"/>
<feColorMatrix in="SourceAlpha" type="matrix" values="0 0 0 0 0 0 0 0 0 0 0 0 0 0 0 0 0 0 127 0" result="hardAlpha"/>
<feOffset dy="9"/>
<feGaussianBlur stdDeviation="60"/>
<feComposite in2="hardAlpha" operator="out"/>
<feColorMatrix type="matrix" values="0 0 0 0 0.396078 0 0 0 0 0.423529 0 0 0 0 0.933333 0 0 0 0.1 0"/>
<feBlend mode="normal" in2="effect1_dropShadow_1119_18551" result="effect2_dropShadow_1119_18551"/>
<feBlend mode="normal" in="SourceGraphic" in2="effect2_dropShadow_1119_18551" result="shape"/>
</filter>
<linearGradient id="paint0_linear_1119_18551" x1="-4.93647" y1="-89.2965" x2="-8.70579" y2="149.809" gradientUnits="userSpaceOnUse">
<stop stop-color="#1D9DF4"/>
<stop offset="1" stop-color="#292D30" stop-opacity="0.8"/>
</linearGradient>
<pattern id="pattern0_1119_18551" patternUnits="userSpaceOnUse" patternTransform="matrix(573.682 0 0 358.56 -75.6208 -97.2707)" preserveAspectRatio="none" viewBox="-1 -1.00244 2124.75 1328" width="1" height="1">
<use xlink:href="#pattern0_1119_18551_inner" transform="translate(-2124.75 -1328)"/>
<use xlink:href="#pattern0_1119_18551_inner" transform="translate(0 -1328)"/>
<use xlink:href="#pattern0_1119_18551_inner" transform="translate(-2124.75 0)"/>
<g id="pattern0_1119_18551_inner">
<g opacity="0.65">
<path d="M605.886 0.0498043C744.756 0.0498043 883.627 0.0498043 1022.51 0.0498043C1025.62 3.78512 1028.01 8.78215 1031.96 11.0399C1047.02 19.5731 1061.99 28.7537 1078.08 34.8464C1103.56 44.5084 1129.71 52.9253 1157.52 53.1079C1166.91 53.1743 1173.06 47.2642 1173.44 37.8678C1173.62 33.5017 1173.04 29.0691 1172.64 24.6863C1171.89 16.4686 1171.05 8.25091 1170.23 0.0498043C1195.68 0.0498043 1221.13 0.0498043 1246.58 0.0498043C1248.24 3.08786 1249.36 6.65717 1251.65 9.08098C1264.38 22.5447 1279.65 32.6052 1296.92 38.9635C1315.02 45.6207 1333.51 50.8501 1353.41 48.6422C1377.62 45.9693 1399.05 35.9919 1420.25 25.1678C1434.18 18.0623 1448.66 17.9295 1462.93 22.2791C1482.57 28.2556 1498.48 40.8561 1514.07 53.8052C1536.44 72.3988 1555.07 94.13 1567.97 120.211C1592.72 170.297 1595.7 223.654 1589.39 277.974C1586.88 299.589 1582.02 320.922 1579.04 342.504C1576.3 362.26 1582.88 380.853 1605.39 389.519C1631.16 399.447 1658.3 399.613 1685.19 401.671C1696.47 402.535 1707.77 402.867 1718.99 404.095C1740.14 406.403 1760.68 403.813 1776.72 389.519C1792.26 375.674 1806.85 360.234 1819.32 343.583C1854.18 297.016 1894.59 255.529 1934.81 213.793C1945.52 202.687 1956.38 191.514 1965.62 179.212C1997.88 136.298 2034.85 97.6329 2071.58 58.6694C2087.7 41.5534 2101.51 22.5115 2109.73 0.0498043C2114.71 0.0498043 2119.69 0.0498043 2124.67 0.0498043C2124.67 23.8396 2124.67 47.6295 2124.67 71.4193C2122.57 72.681 2120.28 73.6771 2118.44 75.2376C2109.61 82.7249 2101.11 90.6271 2092.11 97.9152C2061.7 122.552 2036.36 152.019 2011.13 181.669C1996.3 199.101 1980.95 216.25 1964.38 231.988C1940.13 255.031 1915.54 277.642 1895.7 304.752C1877.62 329.439 1864.47 356.416 1862.66 387.494C1860.85 418.455 1871.53 446.246 1887.35 472.111C1916.68 520.056 1951.61 563.934 1988.45 606.201C2020.58 643.056 2048.75 682.318 2070.35 726.229C2078.28 742.349 2086.68 758.253 2094.4 774.489C2100.56 787.422 2106.14 800.62 2111.75 813.802C2116.17 824.194 2113.74 834.072 2107.58 842.788C2101.56 851.337 2095.15 859.738 2087.93 867.258C2067.89 888.143 2050.87 911.103 2037.94 937.001C2020.69 971.515 2008.34 1007.76 1999.34 1045.28C1992.24 1074.86 1990.26 1104.58 1999.61 1133.59C2015.01 1181.44 2031.95 1228.8 2048.33 1276.33C2054.26 1293.55 2060.49 1310.65 2066.58 1327.8C2053.84 1327.8 2041.13 1327.8 2028.39 1327.8C2018.95 1303.98 2010.9 1279.45 1999.71 1256.48C1982.89 1221.9 1958.27 1192.75 1930.73 1165.95C1922.89 1158.33 1916.09 1149.35 1910.13 1140.14C1899.25 1123.35 1893.03 1104.89 1894.29 1084.5C1895.72 1061.33 1907.89 1043.42 1923.18 1027.33C1945.97 1003.34 1966.57 977.541 1980.08 947.327C1995.86 912.065 2010.28 876.107 2023.38 839.766C2035.92 804.97 2033.31 769.741 2020.11 735.277C2005.3 696.662 1979.62 666.547 1946.78 642.242C1915.09 618.785 1887.53 591.044 1860.92 562.124C1845.85 545.738 1830.67 529.054 1813.39 515.159C1779.81 488.165 1755.93 489.144 1722.96 506.576C1692.61 522.629 1673.16 548.943 1660.06 580.02C1648.29 607.977 1641.8 637.212 1639.36 667.543C1636.68 700.68 1646.33 726.81 1678.49 737.385C1697.64 743.677 1716.82 749.986 1735.71 757.075C1761.28 766.67 1781.3 782.524 1788.02 810.448C1796.42 845.311 1795.24 880.074 1783.56 914.124C1778.51 928.833 1769.01 940.072 1753.86 945.584C1743.78 949.253 1733.65 949.402 1722.96 947.991C1693.99 944.173 1669.17 931.871 1647.53 912.812C1633.03 900.046 1624.13 883.262 1618.09 865.382C1612.26 848.15 1607.45 830.436 1603.91 812.59C1597.54 780.499 1581.34 757.705 1549.59 746.234C1529.11 738.83 1509.05 729.948 1489.48 720.385C1461.14 706.54 1438.56 686.137 1425.71 656.669C1409.15 618.619 1406.12 578.742 1411.85 538.085C1414.51 519.243 1418.66 500.599 1422.01 481.856C1425.78 460.673 1414.09 444.935 1392.94 441.482C1369.53 437.647 1348.4 443.955 1329.01 456.058C1310.03 467.911 1292.29 481.69 1273.43 493.743C1240.72 514.627 1205.86 529.021 1165.83 526.248C1154.1 525.435 1144.95 518.462 1143.99 507.572C1143.42 501.296 1143.29 494.706 1144.58 488.596C1148.24 471.314 1152.47 454.148 1156.94 437.066C1166.17 401.771 1176.08 366.725 1190.9 333.174C1201.83 308.421 1211.44 283.17 1212.14 255.33C1212.87 226.145 1205.65 199.599 1189.04 175.709C1165.14 141.311 1131.85 119.962 1092.04 108.972C1065 101.501 1037.89 101.053 1012.65 116.326C995.72 126.569 985.261 142.772 975.583 159.141C955.345 193.373 936.519 228.436 916.033 262.518C897.971 292.6 873.6 317.469 846.938 340.097C826.336 357.595 804.87 374.196 785.38 392.856C761.557 415.666 741.287 441.614 727.009 471.696C715.986 494.905 705.345 518.296 694.487 541.588C685.855 560.115 670.614 570.823 651.158 574.077C633.012 577.115 614.452 578.128 596.041 579.207C573.795 580.502 565.527 591.077 571.471 612.443C575.621 627.401 583.59 640.383 594.331 651.39C625.293 683.148 679.181 685.655 716.501 656.902C736.423 641.545 758.486 631.817 783.189 627.268C813.387 621.707 843.253 614.867 871.724 602.831C894.866 593.036 918.241 583.723 941.5 574.21C978.372 559.136 1016.55 554.155 1056.02 559.451C1074.49 561.925 1087.33 576.899 1089.09 595.526C1090.95 615.282 1092.21 635.353 1096.96 654.494C1106.4 692.545 1118.42 729.948 1128.7 767.816C1137.06 798.661 1146.38 829.49 1142.08 862.211C1140.09 877.402 1135.26 891.065 1123.95 902.105C1108.59 917.079 1089.62 925.048 1069.6 930.991C1049.72 936.901 1029.54 941.732 1009.8 948.024C988.15 954.93 971.947 969.291 959.961 988.349C944.073 1013.6 929.397 1039.65 912.564 1064.22C879.178 1112.94 833.956 1147.19 779.653 1170.28C751.746 1182.15 724.071 1194.9 697.459 1209.41C662.496 1228.46 647.705 1261.28 653.664 1299.94C655.092 1309.2 656.155 1318.52 657.4 1327.81C638.043 1327.81 618.669 1327.81 599.311 1327.81C598.896 1324 598.465 1320.16 598.05 1316.33C595.692 1293.88 591.642 1271.45 591.492 1248.99C591.343 1226.76 597.552 1204.77 616.544 1190.85C631.966 1179.55 649.066 1169.94 666.58 1162.15C708.98 1143.32 752.493 1126.99 794.694 1107.75C829.855 1091.71 858.393 1066.49 877.983 1032.97C899.083 996.882 904.645 959.296 877.269 923.57C855.139 894.717 835.317 864.702 819.894 831.748C817.139 825.871 812.507 820.774 808.29 815.711C792.419 796.636 770.655 788.468 747.379 783.039C721.05 776.913 694.537 774.622 667.676 778.474C650.195 780.981 636.582 788.767 628.829 805.567C620.329 823.995 622.57 844.016 619.233 863.191C614.518 890.318 611.198 917.859 604.176 944.388C592.206 989.561 568.947 1030.15 548.046 1071.59C536.027 1095.43 519.774 1115.91 496.117 1129.28C480.478 1138.09 464.192 1145.75 448.438 1154.36C424 1167.71 402.302 1184.46 385.137 1206.72C357.595 1242.45 347.883 1283.7 347.053 1327.8C283.984 1327.8 220.899 1327.8 157.83 1327.8C147.62 1303.43 140.398 1278.14 138.174 1251.86C134.704 1210.76 125.075 1171.38 109.669 1133.15C97.8157 1103.76 88.5355 1073.35 91.7396 1041.21C94.2298 1016.31 97.9485 991.337 103.527 966.95C113.338 924.035 116.509 881.585 106.05 838.206C102.78 824.609 103.078 809.601 104.589 795.54C107.146 771.684 118.85 750.932 131.898 731.243C146.275 709.528 161.864 688.693 184.957 675.246C205.659 663.21 227.39 659.823 246.764 676.226C257.173 685.024 265.49 697.177 272.297 709.213C290.044 740.606 313.734 764.562 350.323 770.372C369.664 773.444 389.951 772.962 409.574 771.368C435.389 769.26 459.843 760.926 482.222 747.462C507.223 732.421 511.888 715.372 502.824 688.145C496.715 669.768 487.335 652.137 472.36 639.37C453.086 622.952 432.849 607.496 412.097 592.969C391.412 578.493 373.466 561.659 360.068 540.36C344.031 514.876 328.658 488.962 313.136 463.163C288.151 421.61 257.372 385.535 215.287 360.367C191.813 346.339 167.475 333.722 144.399 319.063C126.984 308.006 109.47 296.335 94.6947 282.141C71.0874 259.464 60.9274 230.046 61.7076 197.308C62.1227 179.959 63.0025 162.561 64.9283 145.329C71.2535 88.5852 92.0882 39.5944 141.129 6.09272C143.237 4.6484 144.549 2.05858 146.242 0C180.541 0 214.856 0 249.154 0C246.78 2.52342 244.788 5.66108 241.966 7.45404C220.517 21.0672 198.47 33.8005 177.453 48.0611C157.88 61.3256 141.843 78.3089 129.757 99.0109C117.256 120.41 110.466 143.32 107.494 167.791C103.195 203.417 112.06 234.561 137.161 260.592C157.133 281.294 181.586 296.003 205.758 310.994C236.089 329.804 266.785 348.281 290.226 375.823C303.972 391.96 316.108 409.491 328.775 426.524C343.434 446.23 356.731 467.098 372.669 485.691C405.457 523.974 448.205 543.979 498.142 549.208C515.79 551.051 528.739 539.961 527.328 522.779C525.086 495.868 521.799 469.056 519.475 442.146C517.018 413.608 514.81 385.02 513.233 356.416C512.386 340.977 513.615 325.438 512.967 309.982C511.756 281.162 522.364 257.222 541.422 236.321C558.306 217.777 571.023 196.959 573.861 171.459C575.638 155.589 576.086 139.552 577.929 123.697C580.452 102.099 582.312 80.2679 587.093 59.1343C591.476 39.0631 599.428 19.7225 605.886 0.0498043ZM909.775 149.446C911.634 120.526 898.403 98.7784 875.891 83.1233C859.439 71.6683 841.476 62.0727 823.331 53.4234C788.551 36.8386 752.21 24.2713 714.21 17.3651C697.725 14.3768 680.941 16.1366 667.759 27.3923C640.284 50.8501 630.854 81.928 635.386 116.874C638.258 138.987 643.604 160.818 648.286 182.682C654.279 210.689 648.966 236.039 630.721 258.135C620.727 270.255 610.169 281.992 599.013 293.032C557.625 334.004 551.765 389.403 572.932 440.087C578.111 452.505 586.229 463.213 597.253 471.065C627.384 492.514 656.072 479.217 678.085 455.709C697.11 435.389 713.795 412.778 733.584 393.288C755.547 371.656 779.47 351.917 803.293 332.261C831.964 308.571 859.671 284.167 878.215 251.262C896.062 219.587 908.314 186.135 909.775 149.446ZM124.561 1048.33C122.685 1079.91 135.119 1108.53 148.782 1136.78C160.088 1160.16 172.057 1183.22 182.815 1206.84C193.888 1231.16 201.541 1257.18 219.205 1278.11C229.681 1290.53 251.678 1303.18 270.172 1286.88C278.323 1279.7 285.047 1270.74 291.671 1262.04C309.036 1239.21 324.624 1214.88 343.45 1193.34C370.079 1162.88 402.219 1138.21 435.655 1115.55C471.065 1091.54 502.093 1063.37 523.725 1025.98C534.782 1006.86 546.27 987.884 555.65 967.929C569.412 938.628 577.298 907.981 572.865 874.828C568.3 840.596 546.486 815.379 513.548 808.888C493.112 804.87 472.941 808.589 452.704 810.913C425.876 813.984 399.015 819.529 372.221 819.28C339.283 818.965 306.396 813.735 273.475 810.714C259.231 809.402 244.821 806.431 230.76 807.51C204.629 809.535 191.498 829.291 182.998 850.723C166.512 892.31 151.555 934.527 136.895 976.811C128.993 999.538 123.515 1023 124.561 1048.33ZM1351.26 379.376C1375.44 378.064 1403.3 377.251 1431.04 374.843C1451.96 373.034 1471.52 365.879 1488.53 353.228C1505.63 340.512 1518.76 324.242 1529.12 305.699C1554.06 261.057 1563.55 214.341 1545.59 164.968C1533.22 130.952 1510.21 107.245 1472.76 103.078C1457.21 101.352 1440.7 102.763 1425.3 105.983C1387.07 113.952 1349.11 117.97 1310.42 109.486C1290.21 105.054 1269.74 101.833 1249.32 98.3966C1233.19 95.674 1223.71 104.855 1227.26 119.846C1229.6 129.773 1232.31 139.718 1235.91 149.247C1250.3 187.347 1257.69 226.692 1258.22 267.399C1258.54 290.857 1259.07 314.315 1259.93 337.756C1260.79 360.832 1274.77 375.175 1297.92 376.802C1314.45 377.948 1331 378.413 1351.26 379.376ZM1020.24 887.578C1031.11 886.018 1042.24 885.42 1052.81 882.697C1075.76 876.787 1092.49 862.294 1096.42 838.82C1099.23 822.086 1098.85 803.907 1095.53 787.239C1085.83 738.481 1062.36 695.566 1034.19 655.125C1024.16 640.748 1011.34 629.277 994.176 624.496C979.318 620.362 964.161 621.491 949.186 625.392C919.802 633.045 894.518 648.119 873.567 669.602C846.307 697.558 844.365 745.968 871.093 778.324C892.841 804.654 917.494 828.577 940.819 853.612C962.252 876.621 988.631 887.545 1020.24 887.578ZM1613.41 552.528C1613.41 550.32 1613.41 548.112 1613.41 545.888C1613.34 506.924 1586.13 480.229 1547.17 479.532C1515.46 478.968 1493.3 495.104 1475.34 518.662C1461.85 536.342 1454.53 556.878 1451.66 578.941C1446.3 620.196 1462.82 666.198 1507.26 685.506C1524.56 693.01 1542.62 695.101 1560.63 689.822C1577.37 684.908 1586.15 670.946 1592.34 655.806C1605.87 622.769 1611.53 588.006 1613.41 552.528ZM1731.16 849.976C1732.99 835.865 1724.95 826.17 1714.73 817.952C1705.25 810.332 1688.66 809.386 1679.52 815.196C1671.53 820.26 1666.75 833.225 1668.77 843.883C1670.77 854.359 1676.16 862.66 1683.95 869.831C1693.41 878.547 1705.93 882.083 1715.81 877.186C1726.65 871.79 1732.39 862.909 1731.16 849.976Z" stroke="white" stroke-width="2" stroke-miterlimit="10"/>
<path d="M657.333 1327.8C656.105 1318.5 655.026 1309.19 653.598 1299.92C647.654 1261.26 662.43 1228.44 697.392 1209.4C724.004 1194.9 751.679 1182.15 779.586 1170.27C833.873 1147.16 879.112 1112.93 912.497 1064.2C929.331 1039.61 944.006 1013.57 959.894 988.332C971.88 969.274 988.1 954.897 1009.73 948.008C1029.47 941.716 1049.66 936.868 1069.53 930.974C1089.53 925.031 1108.53 917.062 1123.88 902.088C1135.21 891.048 1140.02 877.385 1142.01 862.195C1146.31 829.473 1137 798.645 1128.63 767.799C1118.37 729.931 1106.34 692.528 1096.89 654.478C1092.14 635.336 1090.86 615.265 1089.02 595.51C1087.28 576.883 1074.44 561.908 1055.95 559.435C1016.49 554.155 978.288 559.119 941.433 574.193C918.158 583.706 894.8 593.019 871.658 602.814C843.203 614.867 813.32 621.707 783.122 627.251C758.419 631.8 736.356 641.529 716.434 656.885C679.114 685.639 625.226 683.132 594.264 651.373C583.54 640.367 575.571 627.384 571.404 612.426C565.461 591.06 573.728 580.485 595.974 579.19C614.402 578.128 632.946 577.115 651.091 574.061C670.548 570.79 685.771 560.099 694.421 541.572C705.278 518.28 715.92 494.888 726.943 471.68C741.22 441.614 761.49 415.65 785.313 392.839C804.804 374.179 826.269 357.578 846.872 340.08C873.533 317.452 897.904 292.583 915.967 262.502C936.436 228.419 955.279 193.357 975.516 159.125C985.195 142.739 995.653 126.553 1012.59 116.31C1037.82 101.036 1064.93 101.485 1091.97 108.955C1131.79 119.962 1165.07 141.295 1188.98 175.693C1205.58 199.582 1212.8 226.128 1212.07 255.313C1211.37 283.154 1201.78 308.405 1190.84 333.157C1176.01 366.709 1166.1 401.754 1156.87 437.049C1152.4 454.132 1148.17 471.298 1144.52 488.58C1143.22 494.689 1143.36 501.28 1143.92 507.555C1144.88 518.446 1154.05 525.418 1165.77 526.232C1205.79 529.004 1240.64 514.611 1273.36 493.726C1292.22 481.69 1309.97 467.895 1328.94 456.041C1348.33 443.939 1369.47 437.63 1392.88 441.465C1414.03 444.935 1425.71 460.656 1421.94 481.84C1418.61 500.599 1414.44 519.226 1411.78 538.069C1406.06 578.726 1409.08 618.602 1425.65 656.653C1438.48 686.12 1461.06 706.523 1489.41 720.369C1509 729.931 1529.04 738.83 1549.53 746.217C1581.27 757.689 1597.47 780.466 1603.85 812.573C1607.38 830.42 1612.2 848.133 1618.02 865.366C1624.07 883.245 1632.97 900.029 1647.46 912.796C1669.09 931.854 1693.91 944.156 1722.9 947.974C1733.59 949.385 1743.71 949.236 1753.79 945.567C1768.95 940.039 1778.43 928.816 1783.49 914.107C1795.18 880.075 1796.37 845.311 1787.96 810.432C1781.23 782.525 1761.21 766.654 1735.65 757.058C1716.77 749.969 1697.59 743.677 1678.42 737.369C1646.28 726.794 1636.62 700.663 1639.29 667.527C1641.75 637.212 1648.22 607.961 1659.99 580.004C1673.07 548.926 1692.55 522.613 1722.9 506.559C1755.87 489.111 1779.76 488.148 1813.32 515.142C1830.61 529.021 1845.76 545.722 1860.85 562.108C1887.47 591.027 1915.02 618.768 1946.72 642.226C1979.57 666.53 2005.25 696.645 2020.04 735.26C2033.26 769.725 2035.87 804.953 2023.31 839.75C2010.22 876.09 1995.79 912.049 1980.02 947.31C1966.52 977.508 1945.92 1003.32 1923.11 1027.31C1907.82 1043.4 1895.65 1061.31 1894.22 1084.49C1892.96 1104.87 1899.19 1123.34 1910.06 1140.12C1916.04 1149.33 1922.83 1158.3 1930.66 1165.93C1958.2 1192.73 1982.81 1221.88 1999.64 1256.46C2010.83 1279.45 2018.88 1303.96 2028.33 1327.78C2016.71 1327.78 2005.09 1327.78 1993.47 1327.78C1983.52 1299.53 1969.86 1273.11 1947.31 1253.14C1927.97 1236.01 1906.62 1221.12 1885.74 1205.79C1865.85 1191.2 1848.2 1174.83 1838.21 1151.69C1831.09 1135.21 1823.1 1119 1817.46 1102.02C1803.53 1060.1 1776.62 1031.06 1736.31 1013.09C1706.28 999.688 1677.24 984.066 1647.56 969.888C1611.25 952.54 1588.36 925.015 1579.71 885.321C1576.02 868.371 1570.71 851.67 1564.87 835.317C1558.39 817.255 1549.69 799.724 1533.16 788.866C1511.99 774.971 1490.31 761.59 1467.83 749.986C1427.36 729.085 1396.76 699.85 1381.2 656.238C1373.5 634.639 1365.85 613.007 1357.6 591.625C1348.18 567.221 1328.93 556.729 1303.38 562.29C1263.6 570.923 1226.48 586.661 1191.55 607.247C1161.45 624.994 1148.77 652.95 1150.66 686.917C1151.69 705.262 1154.91 723.756 1159.59 741.552C1167.69 772.265 1177.97 802.396 1186.82 832.91C1192.98 854.193 1197.23 875.825 1192.93 898.17C1186.77 930.161 1166.23 949.701 1137 960.492C1112.15 969.672 1086.56 976.877 1061.46 985.427C1032.19 995.388 1007.46 1012.06 989.66 1037.66C968.062 1068.73 947.127 1100.28 925.844 1131.55C908.413 1157.17 886.599 1177.8 858.144 1190.87C830.021 1203.79 801.483 1215.89 773.942 1229.97C749.338 1242.53 728.055 1259.7 721.365 1288.44C718.393 1301.2 718.393 1314.65 717.032 1327.78C697.177 1327.8 677.255 1327.8 657.333 1327.8ZM833.74 562.738C855.454 563.17 875.243 556.994 894.584 549.358C933.133 534.118 971.017 517.085 1010.06 503.305C1059.15 485.99 1093.4 454.663 1112.05 406.121C1126.8 367.688 1142.06 329.422 1156.37 290.824C1164.12 269.939 1168.56 248.623 1162.13 225.962C1149.7 182.068 1098.18 154.028 1054.97 168.089C1033.64 175.029 1018.51 190.12 1005.15 206.638C982.406 234.744 961.372 264.228 939.026 292.65C919.187 317.901 895.962 339.931 871.209 360.35C845.676 381.418 819.081 401.406 798.296 427.586C779.154 451.708 765.076 477.955 766.936 510.062C767.799 525.053 774.108 537.687 785.563 547.515C799.591 559.534 816.325 563.12 833.74 562.738ZM1845.83 865.449C1848.58 879.842 1850.81 898.552 1855.92 916.415C1861.93 937.383 1881.12 945.966 1901.83 939.275C1914.46 935.191 1923.94 926.774 1931.74 916.564C1950.19 892.409 1958.37 864.137 1963.67 834.753C1967.93 811.096 1969.08 787.704 1960.99 764.412C1952.03 738.564 1934.45 722.593 1907.75 717.779C1887.73 714.16 1866.23 719.207 1860.24 746.118C1858.15 755.531 1856.2 765.027 1855.13 774.589C1851.94 803.359 1849.2 832.179 1845.83 865.449ZM1751.91 592.505C1726.86 592.289 1712.65 602.598 1703.32 619.781C1687.4 649.149 1698.54 682.567 1729.49 690.619C1739.05 693.109 1748.84 695.799 1758.6 696.098C1771.74 696.513 1785.13 695.566 1797.04 688.594C1808.86 681.671 1813.71 670.415 1811.35 657.101C1808.69 642.06 1802.5 628.712 1793.22 616.743C1781.61 601.752 1766.36 593.501 1751.91 592.505Z" stroke="white" stroke-width="2" stroke-miterlimit="10"/>
<path d="M717.082 1327.8C718.426 1314.67 718.443 1301.2 721.414 1288.45C728.105 1259.7 749.388 1242.55 773.991 1229.98C801.533 1215.9 830.071 1203.8 858.194 1190.89C886.648 1177.82 908.479 1157.19 925.894 1131.57C947.194 1100.28 968.112 1068.75 989.71 1037.67C1007.51 1012.07 1032.26 995.404 1061.51 985.444C1086.61 976.894 1112.2 969.689 1137.05 960.508C1166.28 949.717 1186.82 930.177 1192.98 898.186C1197.28 875.824 1193.03 854.209 1186.87 832.926C1178.02 802.396 1167.74 772.281 1159.64 741.569C1154.96 723.789 1151.72 705.278 1150.71 686.933C1148.82 652.984 1161.5 625.01 1191.6 607.263C1226.55 586.677 1263.65 570.939 1303.43 562.307C1328.98 556.762 1348.23 567.254 1357.65 591.641C1365.9 613.041 1373.57 634.656 1381.25 656.254C1396.79 699.866 1427.41 729.101 1467.88 750.002C1490.36 761.607 1512.04 774.987 1533.21 788.883C1549.74 799.74 1558.44 817.271 1564.92 835.334C1570.78 851.686 1576.07 868.387 1579.76 885.337C1588.41 925.031 1611.3 952.556 1647.61 969.905C1677.29 984.099 1706.33 999.704 1736.36 1013.1C1776.67 1031.08 1803.56 1060.13 1817.51 1102.04C1823.15 1119.02 1831.14 1135.24 1838.26 1151.71C1848.25 1174.85 1865.88 1191.22 1885.79 1205.81C1906.67 1221.13 1928.02 1236.03 1947.36 1253.16C1969.91 1273.13 1983.57 1299.54 1993.51 1327.8C1979.69 1327.8 1965.86 1327.8 1952.01 1327.8C1946.78 1320.08 1942.32 1311.69 1936.17 1304.77C1914.94 1280.8 1887.32 1268.78 1855.94 1266.77C1833.46 1265.33 1811.43 1269.34 1800.16 1292.34C1794.78 1303.29 1792.84 1315.93 1789.35 1327.8C1701.38 1327.8 1613.41 1327.8 1525.44 1327.8C1522.45 1297.07 1507.76 1272.63 1475.5 1265.87C1458.09 1262.22 1440.92 1260.98 1423.04 1262.64C1399.47 1264.85 1376.47 1268.73 1354.84 1278.29C1331.78 1288.49 1312.62 1303.26 1303.03 1327.78C1285.33 1327.78 1267.62 1327.78 1249.92 1327.78C1253.46 1314.75 1256 1301.34 1260.73 1288.73C1269.88 1264.38 1286.54 1246.63 1312.26 1240.01C1335.48 1234.03 1359.19 1229.97 1382.63 1224.85C1411.73 1218.51 1441.09 1213.1 1469.74 1205.13C1492.15 1198.9 1510.55 1185.11 1521.72 1164.03C1543.87 1122.17 1546.97 1077.4 1538.1 1031.89C1534.67 1014.3 1523.28 1000.22 1504.95 994.558C1485.38 988.515 1465.04 987.353 1445.29 992.15C1420.93 998.061 1396.68 1004.93 1373.17 1013.55C1344.22 1024.14 1317.27 1039.12 1295.23 1061.16C1277.43 1078.96 1266.29 1101.34 1254.82 1123.45C1248.99 1134.67 1242.7 1145.95 1234.83 1155.77C1217.32 1177.62 1192.33 1178.72 1167.36 1176.16C1139.95 1173.36 1112.78 1168.46 1085.42 1165.02C1049.49 1160.51 1014.31 1164.03 980.28 1176.79C956.59 1185.67 936.121 1199.7 923.404 1221.58C904.478 1254.15 897.589 1290.58 894.717 1327.81C876.455 1327.81 858.194 1327.81 839.949 1327.81C838.355 1323.76 837.276 1319.38 835.051 1315.7C827.597 1303.34 817.288 1301 806.248 1310.27C800.869 1314.78 797.665 1321.89 793.465 1327.81C767.981 1327.8 742.532 1327.8 717.082 1327.8ZM1299.11 979.5C1304.29 980.397 1309.59 980.397 1314.78 979.5C1329.86 976.877 1345.05 974.636 1359.81 970.818C1402.62 959.794 1445.42 948.588 1487.74 935.838C1510.06 929.115 1525.5 914.008 1527.25 888.89C1527.75 881.834 1527.86 874.596 1526.88 867.623C1523.94 846.938 1514.55 829.473 1498.89 815.495C1478.49 797.266 1454.04 786.144 1428.75 777.112C1384.51 761.291 1347.7 737.07 1326.34 693.391C1322.98 686.518 1318.2 680.11 1313.07 674.399C1303.31 663.492 1291.14 656.752 1275.97 657.333C1235.03 658.927 1206.71 695.367 1214.19 735.742C1218.83 760.76 1230.07 782.674 1243.1 803.99C1257.37 827.332 1265.79 852.284 1264.94 880.124C1264.31 900.577 1264.66 921.063 1264.88 941.516C1265.09 962.733 1275.77 975.831 1295.18 978.82L1299.11 979.5ZM1694.76 1201.2C1735.71 1203.34 1748.51 1182 1745.66 1157.53C1743.36 1137.96 1737.34 1119.2 1726.4 1102.45C1706.84 1072.52 1682.45 1048.58 1646.53 1039.38C1628.7 1034.82 1613.76 1041.16 1606.54 1058.26C1596.04 1083.13 1592.66 1109.11 1597.75 1136.02C1600.64 1151.29 1605.01 1165.7 1617.76 1175.68C1642.94 1195.4 1673.44 1198.11 1694.76 1201.2ZM1151.29 1029.47C1122.5 1030.7 1096.32 1038.27 1075.77 1055.88C1055.45 1073.3 1055.12 1096.21 1081.75 1107.21C1093.83 1112.21 1107.03 1115.17 1120.01 1117.18C1158.5 1123.14 1187.28 1105.34 1195.24 1068.77C1198.62 1053.21 1192.18 1039.53 1177.02 1034.58C1168.77 1031.88 1159.89 1031.11 1151.29 1029.47Z" stroke="white" stroke-width="2" stroke-miterlimit="10"/>
<path d="M146.092 0.0507812C144.399 2.10936 143.088 4.69918 140.979 6.1435C91.9387 39.6452 71.0873 88.6526 64.7787 145.38C62.853 162.612 61.9731 180.01 61.5581 197.359C60.7778 230.08 70.9379 259.514 94.5451 282.192C109.32 296.386 126.835 308.074 144.25 319.113C167.326 333.756 191.663 346.373 215.138 360.418C257.239 385.586 288.018 421.66 312.987 463.214C328.509 489.029 343.882 514.927 359.919 540.41C373.316 561.71 391.262 578.544 411.948 593.02C432.699 607.547 452.937 623.002 472.211 639.421C487.185 652.171 496.565 669.802 502.674 688.196C511.722 715.423 507.074 732.472 482.072 747.513C459.693 760.977 435.239 769.311 409.424 771.419C389.785 773.029 369.514 773.494 350.174 770.423C313.601 764.613 289.911 740.657 272.147 709.263C265.341 697.227 257.04 685.075 246.614 676.276C227.224 659.874 205.492 663.261 184.807 675.297C161.714 688.727 146.126 709.579 131.749 731.294C118.7 750.983 106.996 771.735 104.44 795.591C102.929 809.652 102.63 824.66 105.9 838.256C116.359 881.619 113.188 924.086 103.377 967C97.799 991.388 94.0802 1016.34 91.59 1041.26C88.386 1073.4 97.6827 1103.81 109.52 1133.2C124.942 1171.43 134.555 1210.81 138.024 1251.91C140.249 1278.19 147.47 1303.48 157.68 1327.85C128.91 1327.85 100.14 1327.85 71.3695 1327.85C74.391 1310.2 77.18 1292.52 80.5003 1274.94C86.6594 1242.32 92.1545 1209.53 84.2854 1176.58C79.1058 1154.88 72.3988 1133.48 65.476 1112.25C56.0796 1083.38 51.7798 1053.78 51.5806 1023.59C51.4644 1007.08 53.5064 990.508 52.8257 974.039C52.2115 958.999 50.7007 943.642 38.4157 932.171C27.4754 921.944 13.8124 920.716 0 919.57C0 860.934 0 802.281 0 743.645C14.5926 743.296 26.6619 735.809 37.7018 727.89C66.7709 707.006 83.9036 676.957 96.7697 644.468C104.788 624.198 110.532 603.014 118.302 582.628C130.637 550.205 153.829 537.621 188.26 542.369C207.086 544.959 226.095 546.271 245.054 547.732C259.464 548.844 280.398 533.255 277.111 515.077C275.119 504.07 273.475 492.648 269.126 482.488C252.773 444.238 221.147 420.498 186.899 399.913C141.892 372.885 96.2716 346.888 55.8306 312.938C34.863 295.34 18.8592 274.306 13.3309 247.462C8.84856 225.697 7.85247 203.219 4.88082 181.122C3.96774 174.366 1.67674 167.775 0.0166015 161.118C0.0166015 107.595 0.0166015 54.0884 0.0166015 0.133788C48.7252 0.0507813 97.4171 0.0507812 146.092 0.0507812Z" stroke="white" stroke-width="2" stroke-miterlimit="10"/>
<path d="M346.937 1327.8C347.767 1283.7 357.478 1242.45 385.02 1206.72C402.186 1184.46 423.867 1167.71 448.321 1154.36C464.076 1145.75 480.379 1138.11 496.001 1129.28C519.674 1115.93 535.91 1095.44 547.93 1071.59C568.814 1030.15 592.09 989.561 604.059 944.388C611.082 917.859 614.402 890.318 619.117 863.191C622.454 844.016 620.212 823.995 628.712 805.567C636.482 788.75 650.095 780.981 667.56 778.474C694.437 774.606 720.933 776.913 747.263 783.039C770.555 788.451 792.303 796.636 808.174 815.711C812.391 820.791 817.039 825.871 819.778 831.748C835.201 864.702 855.023 894.717 877.153 923.57C904.528 959.296 898.967 996.882 877.867 1032.97C858.277 1066.49 829.739 1091.71 794.577 1107.75C752.376 1126.99 708.864 1143.31 666.464 1162.15C648.95 1169.94 631.867 1179.55 616.427 1190.85C597.435 1204.76 591.226 1226.76 591.376 1248.99C591.525 1271.45 595.576 1293.88 597.933 1316.33C598.332 1320.16 598.763 1323.98 599.195 1327.81C578.178 1327.81 557.144 1327.81 536.126 1327.81C535.014 1320.19 534.101 1312.52 532.74 1304.95C528.307 1280.28 524.97 1255.37 512.751 1232.79C502.127 1213.17 477.457 1204.23 457.253 1213.83C427.802 1227.82 412.96 1251.9 411.815 1284.09C411.3 1298.63 412.745 1313.24 413.292 1327.81C391.212 1327.8 369.066 1327.8 346.937 1327.8ZM623.466 1051.98C624.247 1052.16 625.027 1052.35 625.791 1052.55C622.47 1079.34 641.96 1090.23 663.974 1086.73C677.504 1084.57 691.35 1081.78 703.9 1076.5C732.621 1064.43 761.291 1052.16 784.185 1029.5C803.708 1010.2 806.514 988.083 797.3 964.177C789.265 943.342 779.37 923.155 769.293 903.2C760.577 885.918 748.492 871.242 730.147 863.008C714.16 855.836 696.562 858.177 685.29 871.259C677.521 880.274 669.984 890.633 666.198 901.723C654.976 934.643 645.347 968.128 635.718 1001.56C630.954 1018.18 627.517 1035.16 623.466 1051.98Z" stroke="white" stroke-width="2" stroke-miterlimit="10"/>
<path d="M2066.54 1327.8C2060.45 1310.65 2054.24 1293.53 2048.3 1276.33C2031.91 1228.8 2014.98 1181.44 1999.57 1133.59C1990.23 1104.56 1992.2 1074.86 1999.31 1045.28C2008.31 1007.76 2020.66 971.515 2037.91 937.001C2050.86 911.102 2067.87 888.159 2087.89 867.258C2095.12 859.738 2101.52 851.321 2107.55 842.788C2113.69 834.055 2116.13 824.194 2111.72 813.802C2106.12 800.62 2100.53 787.422 2094.37 774.489C2086.65 758.27 2078.25 742.366 2070.31 726.229C2048.71 682.318 2020.54 643.056 1988.42 606.201C1951.58 563.95 1916.65 520.073 1887.32 472.111C1871.49 446.263 1860.82 418.472 1862.63 387.494C1864.46 356.399 1877.6 329.438 1895.67 304.752C1915.5 277.659 1940.09 255.031 1964.35 231.988C1980.91 216.25 1996.25 199.101 2011.1 181.669C2036.33 152.019 2061.66 122.552 2092.08 97.9151C2101.08 90.627 2109.58 82.7414 2118.41 75.2375C2120.25 73.677 2122.54 72.6809 2124.63 71.4192C2124.63 93.001 2124.63 114.566 2124.63 136.148C2121.86 137.26 2118.86 137.958 2116.37 139.535C2089.45 156.551 2068.37 180.059 2046.17 202.371C2028.08 220.55 2009.63 238.363 1991.49 256.475C1973.78 274.172 1954.53 290.691 1939.03 310.164C1911.22 345.094 1906.42 384.173 1928.64 423.901C1941.67 447.209 1957.06 469.239 1972.08 491.369C2017.21 557.841 2062.58 624.163 2108.18 690.32C2112.56 696.678 2119.12 701.543 2124.67 707.088C2124.67 785.098 2124.67 863.091 2124.67 941.101C2110.37 945.899 2099.02 954.897 2089.62 966.385C2071.08 989.079 2064.42 1016.62 2063.84 1044.49C2062.84 1092.99 2060.49 1141.65 2066.56 1190.06C2071.36 1228.39 2084.51 1263.9 2103.33 1297.48C2108.94 1307.49 2114.26 1317.69 2119.7 1327.8C2101.96 1327.8 2084.24 1327.8 2066.54 1327.8Z" stroke="white" stroke-width="2" stroke-miterlimit="10"/>
<path d="M605.885 0.0498043C599.427 19.7225 591.492 39.0631 586.943 59.1675C582.162 80.3011 580.286 102.132 577.779 123.73C575.936 139.601 575.488 155.622 573.712 171.493C570.873 196.992 558.156 217.811 541.273 236.354C522.231 257.272 511.606 281.195 512.818 310.015C513.465 325.471 512.237 341.01 513.083 356.449C514.661 385.053 516.868 413.624 519.325 442.179C521.633 469.09 524.937 495.901 527.178 522.812C528.606 539.994 515.657 551.084 497.993 549.241C448.056 544.012 405.324 523.991 372.519 485.724C356.582 467.114 343.284 446.263 328.625 426.557C315.958 409.524 303.822 392.009 290.077 375.856C266.652 348.314 235.956 329.854 205.609 311.028C181.437 296.037 156.983 281.328 137.011 260.626C111.91 234.595 103.028 203.45 107.345 167.824C110.3 143.353 117.09 120.427 129.607 99.0441C141.71 78.3587 157.73 61.3754 177.303 48.0943C198.32 33.8503 220.367 21.117 241.816 7.48724C244.655 5.69429 246.631 2.55662 249.005 0.0332029C269.474 0.0332029 289.944 0.0332029 310.413 0.0332029C308.571 2.70603 307.027 5.66108 304.835 8.00188C287.022 27.0105 264.743 39.9098 242.63 53.0083C217.379 67.9496 192.361 83.1565 174.298 107.212C139.983 152.916 142.457 208.763 184.292 247.212C207.883 268.893 235.607 286.258 262.319 304.321C289.479 322.698 315.875 341.309 333.705 369.88C345.691 389.071 358.275 407.963 371.839 426.059C382.961 440.9 396.492 453.767 413.84 461.569C436.468 471.746 457.502 463.927 465.172 441.598C468.608 431.554 470.683 420.663 471.198 410.055C472.476 382.679 467.745 356.1 456.921 330.816C451.808 318.88 446.362 307.093 440.685 295.422C426.972 267.233 429.545 240.272 449.068 216.3C462.798 199.433 478.934 184.508 494.274 168.986C506.924 156.203 517.134 141.627 522.812 124.776C530.482 102.032 536.707 78.7903 542.9 55.5815C547.814 37.1872 551.748 18.5438 556.114 0C572.682 0.0498043 589.284 0.0498043 605.885 0.0498043Z" stroke="white" stroke-width="2" stroke-miterlimit="10"/>
<path d="M894.684 1327.8C897.572 1290.58 904.445 1254.15 923.371 1221.57C936.087 1199.69 956.557 1185.66 980.247 1176.78C1014.28 1164.03 1049.46 1160.49 1085.38 1165C1112.74 1168.44 1139.92 1173.34 1167.33 1176.14C1192.3 1178.7 1217.28 1177.61 1234.8 1155.76C1242.67 1145.95 1248.96 1134.67 1254.78 1123.43C1266.26 1101.32 1277.4 1078.93 1295.19 1061.15C1317.24 1039.1 1344.2 1024.13 1373.14 1013.53C1396.64 1004.93 1420.92 998.044 1445.25 992.134C1465.01 987.353 1485.35 988.498 1504.92 994.541C1523.25 1000.2 1534.65 1014.26 1538.07 1031.88C1546.94 1077.38 1543.85 1122.16 1521.69 1164.01C1510.51 1185.11 1492.14 1198.89 1469.71 1205.11C1441.05 1213.08 1411.68 1218.49 1382.6 1224.84C1359.16 1229.95 1335.43 1234.02 1312.23 1239.99C1286.51 1246.62 1269.83 1264.36 1260.7 1288.72C1255.96 1301.32 1253.42 1314.72 1249.89 1327.77C1235.49 1327.77 1221.12 1327.77 1206.72 1327.77C1206.16 1313.99 1206.18 1300.16 1204.86 1286.46C1203.1 1267.88 1197.81 1250.2 1182.4 1238.22C1171.18 1229.48 1159.31 1220.95 1146.48 1215.04C1113.14 1199.65 1077.8 1193.79 1041.46 1200.85C1006.88 1207.57 978.155 1225 956.972 1253.56C940.586 1275.65 930.393 1300.52 926.193 1327.77C915.718 1327.8 905.209 1327.8 894.684 1327.8ZM1379.31 1177.69C1390.45 1176.64 1398.42 1176.09 1406.34 1175.1C1445.6 1170.13 1490.18 1143.71 1492.72 1092.69C1494.29 1060.95 1478.36 1038.55 1445.68 1037.41C1421.88 1036.58 1400.61 1045.33 1380.57 1056.86C1356.75 1070.61 1338.36 1089.53 1328.55 1115.95C1319.18 1141.12 1328.16 1164.64 1351.49 1172.34C1361.28 1175.6 1371.91 1176.33 1379.31 1177.69Z" stroke="white" stroke-width="2" stroke-miterlimit="10"/>
<path d="M2109.71 0.0498047C2101.49 22.5115 2087.7 41.5534 2071.56 58.6694C2034.85 97.6495 1997.88 136.314 1965.61 179.212C1956.36 191.514 1945.5 202.687 1934.8 213.793C1894.57 255.529 1854.18 296.999 1819.3 343.583C1806.83 360.234 1792.24 375.674 1776.7 389.519C1760.65 403.813 1740.13 406.419 1718.98 404.095C1707.75 402.867 1696.43 402.535 1685.18 401.671C1658.28 399.613 1631.14 399.447 1605.37 389.519C1582.86 380.837 1576.3 362.26 1579.03 342.504C1582.02 320.922 1586.86 299.589 1589.37 277.974C1595.68 223.654 1592.71 170.297 1567.95 120.211C1555.06 94.1134 1536.43 72.3988 1514.05 53.8052C1498.46 40.8561 1482.56 28.2556 1462.92 22.2791C1448.64 17.9461 1434.16 18.0623 1420.23 25.1678C1399.03 35.9753 1377.6 45.9693 1353.4 48.6422C1333.49 50.8335 1315 45.6207 1296.9 38.9635C1279.65 32.6218 1264.36 22.5447 1251.63 9.08098C1249.32 6.64057 1248.23 3.08786 1246.57 0.0498047C1347.82 0.0498047 1449.07 0.0498047 1550.32 0.0498047C1550.95 2.44041 1551.17 5.03023 1552.28 7.17181C1560.4 22.8436 1568.49 38.5485 1576.97 54.0376C1596.18 89.0832 1611.8 125.407 1620.4 164.719C1627.06 195.15 1634.28 225.563 1643.32 255.363C1649.85 276.862 1663.78 294.011 1685.33 303.009C1730.76 321.968 1773.88 317.469 1812.21 286.208C1833.71 268.677 1853.93 249.254 1872.82 228.917C1893.43 206.737 1913.15 183.462 1930.88 158.942C1956.96 122.834 1983.97 87.7717 2015.73 56.3784C2026.85 45.3717 2036.6 32.8542 2046.11 20.3699C2050.66 14.3934 2053.16 6.87299 2056.6 0.0664061C2074.3 0.0498047 2091.99 0.0498047 2109.71 0.0498047Z" stroke="white" stroke-width="2" stroke-miterlimit="10"/>
<path d="M556.081 0.0498047C551.715 18.577 547.781 37.237 542.867 55.6314C536.674 78.8401 530.449 102.082 522.779 124.826C517.101 141.677 506.891 156.253 494.241 169.036C478.885 184.541 462.765 199.483 449.035 216.35C429.512 240.306 426.955 267.283 440.652 295.472C446.329 307.143 451.775 318.946 456.888 330.866C467.728 356.15 472.46 382.729 471.165 410.105C470.667 420.713 468.592 431.604 465.139 441.648C457.485 463.976 436.435 471.796 413.807 461.619C396.459 453.816 382.928 440.95 371.805 426.109C358.242 408.013 345.658 389.121 333.672 369.929C315.842 341.358 289.446 322.748 262.286 304.37C235.574 286.308 207.866 268.943 184.259 247.262C142.424 208.813 139.95 152.982 174.265 107.262C192.328 83.2063 217.362 67.9994 242.597 53.0581C264.726 39.9596 286.989 27.0603 304.802 8.05169C306.994 5.71089 308.537 2.75584 310.38 0.0830075C329.19 0.0830075 347.999 0.0830075 366.808 0.0830075C365.547 2.17479 364.6 4.53219 362.99 6.29194C336.411 35.1452 305.914 58.9848 272.23 79.1556C248.374 93.4328 224.053 107.693 209.51 133.094C195.382 157.763 194.336 182.997 209.593 206.92C234.777 246.382 272.164 268.412 317.701 276.729C330.7 279.103 343.932 276.397 352.432 265.49C364.418 250.1 375.043 233.599 385.9 217.362C399.629 196.843 415.534 178.349 434.094 161.98C453.435 144.93 471.314 126.42 482.919 102.979C498.956 70.5892 503.206 35.61 504.567 0.0830075C521.783 0.0498047 538.932 0.0498047 556.081 0.0498047Z" stroke="white" stroke-width="2" stroke-miterlimit="10"/>
<path d="M0.033203 161.034C1.69334 167.691 3.98434 174.265 4.89742 181.038C7.86907 203.151 8.86516 225.613 13.3475 247.378C18.8758 274.222 34.8962 295.273 55.8472 312.854C96.2882 346.804 141.909 372.785 186.915 399.829C221.164 420.414 252.79 444.154 269.142 482.404C273.475 492.564 275.135 503.986 277.127 514.993C280.415 533.171 259.48 548.76 245.07 547.648C226.111 546.187 207.103 544.875 188.277 542.285C153.862 537.537 130.653 550.121 118.318 582.544C110.565 602.93 104.821 624.114 96.7863 644.384C83.9368 676.873 66.8041 706.922 37.7184 727.806C26.6785 735.725 14.6092 743.212 0.0166016 743.561C0.0166016 710.922 0.0166016 678.284 0.0166016 645.646C6.55756 638.109 14.7255 631.435 19.2742 622.835C27.6414 607.064 33.9001 590.164 41.0221 573.728C55.4819 540.343 70.224 507.074 84.302 473.522C92.6193 453.7 94.0138 433.712 83.3723 413.774C73.0794 394.466 57.0923 380.504 40.3747 367.456C27.6248 357.495 13.5136 349.277 0.0166016 340.279C0.033203 280.531 0.033203 220.782 0.033203 161.034Z" stroke="white" stroke-width="2" stroke-miterlimit="10"/>
<path d="M1606.77 0.0498047C1628.9 0.0498047 1651.03 0.0498047 1673.16 0.0498047C1673.95 4.36617 1674.14 8.89836 1675.63 12.9657C1689.13 49.8043 1702.48 86.6926 1716.74 123.232C1721.1 134.405 1727.28 145.13 1734.17 154.974C1743.73 168.654 1759.95 170.497 1773.41 160.552C1784.09 152.667 1789.87 141.212 1794.05 129.142C1806.12 94.3293 1823.93 62.7866 1846 33.3855C1853.9 22.8602 1860.29 11.206 1867.36 0.0664061C1907.75 0.0664061 1948.14 0.0664061 1988.53 0.0664061C1986.87 3.10447 1985.76 6.67377 1983.45 9.09758C1974.9 18.1288 1966.32 27.1931 1957.09 35.5104C1927.23 62.4213 1906.42 95.591 1887.86 130.852C1875.83 153.713 1861.53 175.56 1846.58 196.66C1831.58 217.811 1812.19 234.678 1788.52 246.149C1751.91 263.88 1711.81 254.516 1687.14 222.293C1672.84 203.633 1666.72 181.42 1659.96 159.523C1650.83 129.973 1642.38 100.19 1632.67 70.8217C1624.75 46.982 1615.45 23.6238 1606.77 0.0498047Z" stroke="white" stroke-width="2" stroke-miterlimit="10"/>
<path d="M504.633 0.0498047C503.272 35.5768 499.022 70.556 482.985 102.945C471.381 126.387 453.501 144.914 434.16 161.947C415.583 178.316 399.696 196.793 385.966 217.329C375.092 233.582 364.484 250.067 352.498 265.457C344.015 276.347 330.783 279.07 317.768 276.696C272.23 268.379 234.844 246.348 209.659 206.887C194.386 182.964 195.449 157.73 209.576 133.06C224.119 107.66 248.44 93.3996 272.296 79.1224C305.981 58.9516 336.478 35.112 363.056 6.25874C364.667 4.49899 365.613 2.12498 366.875 0.0498047C412.778 0.0498047 458.697 0.0498047 504.633 0.0498047ZM302.777 202.67C321.038 201.79 333.821 190.568 345.891 178.847C356.549 168.504 365.978 156.917 376.105 146.026C386.813 134.521 397.969 123.432 408.495 111.761C418.04 101.186 425.312 89.1994 427.835 74.8392C430.442 59.9809 419.966 49.8873 405.905 54.4693C398.384 56.9097 390.864 60.1802 384.24 64.4799C356.931 82.1936 329.854 100.273 302.943 118.584C291.355 126.47 279.651 134.422 272.213 146.939C265.274 158.627 262.917 170.762 270.089 182.981C277.31 195.233 288.483 201.657 302.777 202.67Z" stroke="white" stroke-width="2" stroke-miterlimit="10"/>
<path d="M1606.77 0.0498047C1615.45 23.6238 1624.76 46.982 1632.63 70.8217C1642.35 100.19 1650.8 129.973 1659.93 159.523C1666.7 181.42 1672.83 203.616 1687.1 222.293C1711.76 254.516 1751.88 263.88 1788.49 246.149C1812.18 234.678 1831.57 217.811 1846.54 196.66C1861.5 175.56 1875.79 153.713 1887.83 130.852C1906.39 95.591 1927.19 62.4379 1957.06 35.5104C1966.29 27.1931 1974.87 18.1288 1983.42 9.09758C1985.73 6.67377 1986.84 3.10447 1988.5 0.0664061C2011.18 0.0664061 2033.87 0.0664061 2056.55 0.0664061C2053.11 6.88959 2050.59 14.41 2046.06 20.3699C2036.55 32.8542 2026.82 45.3717 2015.68 56.3784C1983.92 87.7717 1956.91 122.834 1930.83 158.942C1913.11 183.462 1893.38 206.737 1872.77 228.917C1853.88 249.254 1833.66 268.677 1812.16 286.208C1773.83 317.469 1730.73 321.968 1685.28 303.009C1663.73 294.028 1649.8 276.862 1643.28 255.363C1634.23 225.563 1627.01 195.166 1620.35 164.719C1611.75 125.407 1596.13 89.0832 1576.92 54.0376C1568.44 38.5485 1560.35 22.8602 1552.23 7.17181C1551.12 5.03023 1550.9 2.44041 1550.27 0.0498047C1569.15 0.0498047 1587.96 0.0498047 1606.77 0.0498047Z" stroke="white" stroke-width="2" stroke-miterlimit="10"/>
<path d="M2124.63 707.071C2119.09 701.509 2112.53 696.662 2108.15 690.304C2062.56 624.147 2017.19 557.824 1972.05 491.352C1957.03 469.222 1941.64 447.192 1928.6 423.884C1906.39 384.157 1911.19 345.06 1939 310.148C1954.5 290.674 1973.74 274.156 1991.46 256.459C2009.6 238.33 2028.06 220.533 2046.14 202.355C2068.34 180.042 2089.44 156.535 2116.33 139.518C2118.81 137.958 2121.83 137.244 2124.6 136.132C2124.6 169.882 2124.6 203.633 2124.6 237.367C2122.52 238.131 2120.37 238.679 2118.41 239.675C2080.56 258.7 2043.9 279.767 2011.36 307.093C1995.74 320.225 1983.39 336.013 1979.89 357.246C1976.78 376.172 1983.49 392.557 1992.04 408.528C2006.36 435.306 2021.65 461.586 2035.13 488.762C2056.75 532.391 2083.79 572.201 2115.52 608.94C2117.93 611.746 2121.55 613.505 2124.6 615.747C2124.63 646.21 2124.63 676.641 2124.63 707.071Z" stroke="white" stroke-width="2" stroke-miterlimit="10"/>
<path d="M2124.63 615.797C2121.58 613.555 2117.98 611.779 2115.55 608.99C2083.83 572.234 2056.78 532.424 2035.17 488.812C2021.7 461.619 2006.4 435.339 1992.07 408.578C1983.52 392.59 1976.8 376.221 1979.92 357.296C1983.4 336.046 1995.77 320.258 2011.39 307.143C2043.93 279.8 2080.59 258.75 2118.44 239.725C2120.4 238.745 2122.56 238.181 2124.63 237.417C2124.63 290.525 2124.63 343.633 2124.63 396.741C2112.86 398.501 2098.07 421.294 2096.48 433.845C2092.71 463.528 2100.78 490.008 2117.81 514.08C2119.44 516.371 2122.33 517.749 2124.62 519.558C2124.63 551.615 2124.63 583.706 2124.63 615.797Z" stroke="white" stroke-width="2" stroke-miterlimit="10"/>
<path d="M0.033203 919.503C13.829 920.648 27.492 921.877 38.4489 932.103C50.7505 943.575 52.2447 958.931 52.8589 973.972C53.5396 990.441 51.4976 1007.01 51.6138 1023.53C51.8296 1053.73 56.1128 1083.31 65.5092 1112.18C72.432 1133.41 79.1224 1154.79 84.3186 1176.51C92.1877 1209.46 86.7092 1242.23 80.5335 1274.87C77.2132 1292.45 74.4242 1310.15 71.4027 1327.78C47.6129 1327.78 23.823 1327.78 0.033203 1327.78C0.033203 1306.76 0.033203 1285.73 0.033203 1264.71C2.87205 1263.25 6.22553 1262.36 8.46672 1260.25C36.3073 1234.27 44.525 1201.16 35.9753 1165.82C29.0359 1137.15 16.1532 1109.9 5.66108 1082.11C4.6982 1079.56 1.94237 1077.68 0.0166016 1075.51C0.033203 1023.51 0.033203 971.515 0.033203 919.503Z" stroke="white" stroke-width="2" stroke-miterlimit="10"/>
<path d="M1867.36 0.0498045C1860.29 11.1894 1853.9 22.8436 1845.99 33.3689C1823.93 62.77 1806.12 94.3127 1794.05 129.126C1789.87 141.195 1784.07 152.65 1773.41 160.536C1759.95 170.48 1743.73 168.637 1734.17 154.958C1727.28 145.113 1721.1 134.388 1716.74 123.216C1702.48 86.676 1689.13 49.7877 1675.63 12.9491C1674.14 8.88176 1673.95 4.34957 1673.16 0.0332031C1737.89 0.0498045 1802.63 0.0498045 1867.36 0.0498045Z" stroke="white" stroke-width="2" stroke-miterlimit="10"/>
<path d="M2119.65 1327.8C2114.21 1317.69 2108.89 1307.49 2103.28 1297.48C2084.47 1263.92 2071.33 1228.39 2066.51 1190.06C2060.45 1141.65 2062.81 1092.99 2063.79 1044.5C2064.35 1016.64 2071.03 989.079 2089.57 966.385C2098.97 954.881 2110.32 945.899 2124.62 941.101C2124.62 1001.96 2124.62 1062.81 2124.62 1123.67C2123.57 1124.85 2121.84 1125.89 2121.61 1127.2C2116.71 1154.99 2113.46 1182.87 2120.38 1210.81C2121.05 1213.48 2123.17 1215.79 2124.63 1218.26C2124.63 1253.11 2124.55 1287.97 2124.75 1322.82C2124.77 1326.97 2123.8 1328.61 2119.65 1327.8Z" stroke="white" stroke-width="2" stroke-miterlimit="10"/>
<path d="M0.0332031 340.279C13.5302 349.277 27.6414 357.495 40.3913 367.456C57.0923 380.505 73.0794 394.466 83.3889 413.774C94.0304 433.712 92.6359 453.7 84.3186 473.522C70.2406 507.074 55.5151 540.343 41.0387 573.728C33.9167 590.164 27.658 607.064 19.2909 622.835C14.7255 631.418 6.57416 638.109 0.0332031 645.646C0.0332031 598.066 0.0332031 550.486 0.0332031 502.907C1.57714 501.462 3.70212 500.284 4.59859 498.507C12.7167 482.421 17.1659 465.338 14.4432 447.358C12.8661 436.949 9.81144 426.441 0.0332031 419.916C0.0332031 393.387 0.0332031 366.842 0.0332031 340.279Z" stroke="white" stroke-width="2" stroke-miterlimit="10"/>
<path d="M926.227 1327.8C930.41 1300.54 940.603 1275.69 957.006 1253.59C978.189 1225.04 1006.91 1207.6 1041.49 1200.88C1077.83 1193.82 1113.16 1199.68 1146.51 1215.07C1159.34 1221 1171.2 1229.53 1182.44 1238.25C1197.86 1250.24 1203.14 1267.9 1204.9 1286.49C1206.19 1300.19 1206.18 1314.02 1206.76 1327.8C1194.59 1327.8 1182.42 1327.8 1170.23 1327.8C1169.65 1323.15 1169.3 1318.47 1168.46 1313.87C1164.86 1294.41 1159.66 1275.69 1145.51 1260.7C1120.63 1234.33 1089 1225.43 1054.77 1230.68C1001.26 1238.88 968.71 1276.67 954.465 1327.8C945.036 1327.8 935.64 1327.8 926.227 1327.8Z" stroke="white" stroke-width="2" stroke-miterlimit="10"/>
<path d="M413.342 1327.8C412.794 1313.22 411.35 1298.61 411.865 1284.07C413.01 1251.88 427.835 1227.81 457.303 1213.81C477.49 1204.22 502.176 1213.15 512.801 1232.77C525.02 1255.35 528.373 1280.27 532.789 1304.94C534.151 1312.53 535.064 1320.18 536.176 1327.8C495.22 1327.8 454.281 1327.8 413.342 1327.8Z" stroke="white" stroke-width="2" stroke-miterlimit="10"/>
<path d="M1303.01 1327.8C1312.61 1303.26 1331.77 1288.5 1354.83 1278.31C1376.46 1268.73 1399.45 1264.86 1423.02 1262.65C1440.9 1260.98 1458.09 1262.24 1475.48 1265.89C1507.74 1272.65 1522.45 1297.09 1525.42 1327.81C1492.78 1327.81 1460.13 1327.81 1427.49 1327.81C1419.84 1320.61 1400.3 1320.61 1392.63 1327.81C1362.76 1327.8 1332.89 1327.8 1303.01 1327.8Z" stroke="white" stroke-width="2" stroke-miterlimit="10"/>
<path d="M954.449 1327.8C968.693 1276.67 1001.25 1238.88 1054.75 1230.68C1088.99 1225.43 1120.61 1234.33 1145.5 1260.7C1159.66 1275.69 1164.84 1294.41 1168.44 1313.87C1169.29 1318.47 1169.64 1323.15 1170.22 1327.8C1158.05 1327.8 1145.88 1327.8 1133.69 1327.8C1128.7 1284.52 1090.41 1253.61 1047.86 1266.31C1016.29 1275.74 996.317 1296.95 985.975 1327.8C975.466 1327.8 964.957 1327.8 954.449 1327.8Z" stroke="white" stroke-width="2" stroke-miterlimit="10"/>
<path d="M1789.35 1327.8C1792.85 1315.93 1794.8 1303.29 1800.16 1292.34C1811.43 1269.34 1833.46 1265.33 1855.94 1266.77C1887.32 1268.78 1914.94 1280.8 1936.17 1304.77C1942.3 1311.69 1946.78 1320.08 1952.01 1327.8C1897.79 1327.8 1843.57 1327.8 1789.35 1327.8Z" stroke="white" stroke-width="2" stroke-miterlimit="10"/>
<path d="M985.992 1327.8C996.334 1296.95 1016.31 1275.74 1047.88 1266.31C1090.43 1253.61 1128.73 1284.52 1133.71 1327.8C1117.11 1327.8 1100.51 1327.8 1083.92 1327.8C1079.52 1317.02 1069.55 1313.54 1059.92 1313.52C1049.72 1313.49 1039.12 1316.56 1034.14 1327.8C1018.07 1327.8 1002.03 1327.8 985.992 1327.8Z" stroke="white" stroke-width="2" stroke-miterlimit="10"/>
<path d="M1170.23 0.0498047C1171.05 8.26751 1171.89 16.4686 1172.64 24.6863C1173.04 29.0691 1173.62 33.4851 1173.44 37.8678C1173.04 47.2642 1166.91 53.1743 1157.52 53.1079C1129.71 52.9087 1103.58 44.5084 1078.08 34.8464C1061.99 28.7537 1047.02 19.5731 1031.96 11.0399C1028.01 8.79875 1025.62 3.78512 1022.51 0.0498047C1071.74 0.0498047 1120.98 0.0498047 1170.23 0.0498047Z" stroke="white" stroke-width="2" stroke-miterlimit="10"/>
<path d="M0.0332031 1075.52C1.95897 1077.71 4.7148 1079.59 5.67769 1082.13C16.1698 1109.92 29.0525 1137.15 35.9919 1165.83C44.5416 1201.18 36.3239 1234.28 8.48333 1260.26C6.24213 1262.36 2.88865 1263.27 0.0498045 1264.73C0.0332031 1201.66 0.0332031 1138.59 0.0332031 1075.52Z" stroke="white" stroke-width="2" stroke-miterlimit="10"/>
<path d="M2124.63 519.525C2122.33 517.715 2119.44 516.337 2117.83 514.046C2100.78 489.974 2092.72 463.495 2096.49 433.812C2098.09 421.261 2112.88 398.467 2124.65 396.708C2124.63 437.647 2124.63 478.586 2124.63 519.525Z" stroke="white" stroke-width="2" stroke-miterlimit="10"/>
<path d="M0.0332031 419.949C9.81144 426.474 12.8661 436.983 14.4432 447.392C17.1493 465.354 12.7001 482.437 4.59859 498.541C3.70212 500.317 1.59374 501.496 0.0332031 502.94C0.0332031 475.265 0.0332031 447.607 0.0332031 419.949Z" stroke="white" stroke-width="2" stroke-miterlimit="10"/>
<path d="M793.448 1327.8C797.648 1321.87 800.852 1314.77 806.231 1310.25C817.271 1300.99 827.581 1303.33 835.035 1315.68C837.259 1319.36 838.322 1323.73 839.932 1327.8C824.426 1327.8 808.937 1327.8 793.448 1327.8Z" stroke="white" stroke-width="2" stroke-miterlimit="10"/>
<path d="M2124.63 1218.25C2123.19 1215.77 2121.05 1213.46 2120.38 1210.79C2113.46 1182.85 2116.71 1154.98 2121.61 1127.19C2121.84 1125.87 2123.59 1124.81 2124.62 1123.65C2124.63 1155.18 2124.63 1186.72 2124.63 1218.25Z" stroke="white" stroke-width="2" stroke-miterlimit="10"/>
<path d="M1034.12 1327.8C1039.1 1316.56 1049.72 1313.49 1059.9 1313.52C1069.53 1313.55 1079.51 1317.02 1083.91 1327.8C1067.32 1327.8 1050.72 1327.8 1034.12 1327.8Z" stroke="white" stroke-width="2" stroke-miterlimit="10"/>
<path d="M1392.64 1327.8C1400.3 1320.59 1419.84 1320.59 1427.51 1327.8C1415.89 1327.8 1404.26 1327.8 1392.64 1327.8Z" stroke="white" stroke-width="2" stroke-miterlimit="10"/>
<path d="M909.774 149.446C908.313 186.135 896.061 219.587 878.215 251.246C859.654 284.15 831.963 308.554 803.293 332.244C779.486 351.917 755.564 371.639 733.583 393.271C713.794 412.761 697.11 435.372 678.085 455.692C656.071 479.2 627.384 492.481 597.252 471.049C586.229 463.196 578.128 452.488 572.931 440.07C551.765 389.403 557.625 334.004 599.012 293.015C610.168 281.975 620.727 270.221 630.721 258.119C648.966 236.022 654.278 210.672 648.285 182.665C643.604 160.801 638.258 138.987 635.386 116.857C630.854 81.9114 640.283 50.8335 667.759 27.3757C680.94 16.12 697.724 14.3602 714.209 17.3485C752.21 24.2547 788.551 36.8219 823.331 53.4068C841.476 62.0561 859.422 71.6683 875.891 83.1067C898.402 98.795 911.617 120.543 909.774 149.446ZM720.784 134.604C723.041 144.217 725.083 153.895 727.607 163.424C732.62 182.35 738.414 201.076 742.88 220.135C745.752 232.436 746.217 245.286 748.89 257.654C751.546 269.972 762.121 276.148 773.991 272.379C808.24 261.506 832.163 226.261 831.2 189.439C830.071 146.192 793.996 112.973 756.526 105.137C736.273 100.887 722.079 113.521 720.784 134.604Z" stroke="white" stroke-width="2" stroke-miterlimit="10"/>
<path d="M124.56 1048.33C123.514 1023 128.993 999.538 136.879 976.811C151.538 934.527 166.496 892.31 182.981 850.723C191.481 829.291 204.612 809.535 230.743 807.51C244.821 806.414 259.231 809.402 273.458 810.714C306.379 813.735 339.267 818.965 372.204 819.28C398.998 819.529 425.876 813.984 452.687 810.913C472.925 808.589 493.079 804.87 513.532 808.888C546.469 815.362 568.283 840.58 572.848 874.828C577.264 907.998 569.395 938.628 555.633 967.929C546.253 987.884 534.765 1006.86 523.708 1025.98C502.093 1063.37 471.065 1091.54 435.638 1115.55C402.186 1138.21 370.046 1162.88 343.433 1193.34C324.607 1214.88 309.019 1239.21 291.654 1262.04C285.03 1270.76 278.306 1279.7 270.155 1286.88C251.661 1303.16 229.664 1290.53 219.188 1278.11C201.525 1257.18 193.871 1231.18 182.798 1206.84C172.057 1183.22 160.071 1160.16 148.765 1136.78C135.119 1108.53 122.684 1079.91 124.56 1048.33ZM349.676 864.768C328.741 864.768 307.707 863.805 286.806 865C257.339 866.694 232.32 879.128 213.345 901.889C190.385 929.414 174.497 960.973 164.42 995.255C154.393 1029.3 153.264 1063.22 169.334 1096.18C180.142 1118.35 195.614 1136.88 213.444 1153.72C239.293 1178.1 268.262 1185.14 301.233 1168.11C347.102 1144.42 385.551 1110.68 423.984 1077.07C452.687 1051.97 475.481 1021.7 495.569 989.411C510.078 966.103 523.791 942.396 525.053 913.925C525.783 897.406 521.318 882.747 507.987 871.99C490.555 857.928 469.737 857.214 448.869 858.327C415.832 860.103 382.845 862.577 349.676 864.768Z" stroke="white" stroke-width="2" stroke-miterlimit="10"/>
<path d="M1351.26 379.376C1331 378.413 1314.45 377.948 1297.95 376.786C1274.81 375.159 1260.81 360.815 1259.96 337.739C1259.08 314.298 1258.57 290.84 1258.25 267.382C1257.71 226.676 1250.34 187.33 1235.94 149.23C1232.34 139.701 1229.63 129.757 1227.29 119.829C1223.76 104.838 1233.22 95.674 1249.36 98.38C1269.76 101.816 1290.25 105.037 1310.45 109.47C1349.15 117.953 1387.1 113.936 1425.33 105.967C1440.74 102.763 1457.24 101.335 1472.79 103.062C1510.25 107.229 1533.26 130.935 1545.63 164.952C1563.57 214.324 1554.08 261.057 1529.16 305.682C1518.8 324.226 1505.65 340.495 1488.57 353.212C1471.55 365.862 1451.99 373.017 1431.08 374.827C1403.32 377.251 1375.44 378.064 1351.26 379.376ZM1449.04 156.053C1426.53 156.053 1372.22 166.197 1352.6 172.904C1328.15 181.271 1312.29 196.777 1310.1 223.322C1308.61 241.501 1309.02 259.729 1314.45 277.476C1320.64 297.78 1332.08 313.285 1352.3 321.885C1374.03 331.115 1396.38 332.759 1419.5 329.87C1476.93 322.698 1519.38 263.465 1512.07 208.995C1510.35 196.179 1505.82 184.558 1496.92 174.73C1483.39 159.755 1466.45 154.476 1449.04 156.053Z" stroke="white" stroke-width="2" stroke-miterlimit="10"/>
<path d="M1020.24 887.578C988.631 887.545 962.251 876.621 940.819 853.612C917.511 828.577 892.841 804.654 871.093 778.324C844.365 745.968 846.307 697.558 873.567 669.602C894.518 648.119 919.802 633.045 949.186 625.392C964.161 621.491 979.318 620.362 994.176 624.495C1011.36 629.277 1024.17 640.748 1034.19 655.125C1062.36 695.566 1085.83 738.481 1095.53 787.239C1098.85 803.907 1099.23 822.086 1096.42 838.82C1092.49 862.294 1075.77 876.771 1052.81 882.697C1042.24 885.42 1031.11 886.018 1020.24 887.578ZM977.757 756.975C980.928 773.46 989.843 789.165 1007.47 799.109C1013.25 802.363 1019 802.762 1024.51 798.545C1030.43 794.029 1033.94 788.219 1032.04 780.615C1027.54 762.47 1018.58 747.562 1000.8 739.361C988.415 733.65 977.508 740.49 977.757 756.975Z" stroke="white" stroke-width="2" stroke-miterlimit="10"/>
<path d="M1613.41 552.529C1611.53 588.006 1605.89 622.769 1592.34 655.806C1586.15 670.93 1577.37 684.892 1560.63 689.822C1542.62 695.118 1524.56 693.026 1507.26 685.506C1462.83 666.215 1446.32 620.213 1451.66 578.941C1454.53 556.878 1461.85 536.342 1475.33 518.662C1493.3 495.121 1515.48 478.984 1547.17 479.532C1586.13 480.213 1613.34 506.908 1613.41 545.888C1613.41 548.113 1613.41 550.321 1613.41 552.529ZM1543.68 595.344C1543.62 582.992 1533.22 573.446 1524.61 577.314C1511.29 583.291 1507.99 602.515 1519.3 611.596C1522.25 613.97 1528.53 615.265 1531.68 613.738C1538.95 610.202 1544.5 604.176 1543.68 595.344Z" stroke="white" stroke-width="2" stroke-miterlimit="10"/>
<path d="M1731.16 849.976C1732.39 862.909 1726.65 871.79 1715.81 877.169C1705.93 882.083 1693.41 878.53 1683.95 869.815C1676.16 862.643 1670.77 854.342 1668.77 843.867C1666.75 833.225 1671.53 820.26 1679.52 815.179C1688.66 809.369 1705.26 810.315 1714.73 817.935C1724.95 826.17 1732.97 835.865 1731.16 849.976Z" stroke="white" stroke-width="2" stroke-miterlimit="10"/>
<path d="M833.74 562.738C816.325 563.12 799.591 559.534 785.579 547.515C774.124 537.703 767.816 525.07 766.952 510.062C765.11 477.971 779.171 451.708 798.312 427.586C819.097 401.406 845.676 381.418 871.226 360.35C895.979 339.931 919.204 317.9 939.043 292.65C961.388 264.211 982.422 234.727 1005.17 206.638C1018.53 190.136 1033.65 175.029 1054.99 168.089C1098.22 154.028 1149.71 182.068 1162.15 225.962C1168.57 248.623 1164.12 269.939 1156.39 290.824C1142.08 329.422 1126.82 367.672 1112.06 406.12C1093.42 454.663 1059.17 485.99 1010.08 503.305C971.034 517.084 933.133 534.117 894.601 549.357C875.26 557.011 855.471 563.17 833.74 562.738ZM1092.17 279.734C1092.17 276.961 1092.29 274.206 1092.16 271.433C1091.33 254.5 1078.08 244.024 1062.13 249.37C1051.85 252.806 1041.17 257.654 1033.16 264.71C1010.36 284.731 988.947 306.329 966.767 327.048C948.024 344.546 929.132 361.927 909.94 378.944C889.952 396.658 869.101 413.408 849.478 431.487C838.82 441.315 831.814 454.016 828.942 468.658C825.539 486.04 832.711 498.541 849.295 504.168C863.357 508.933 877.186 506.044 889.753 500.649C926.791 484.778 963.58 468.26 999.854 450.712C1020.61 440.685 1039.68 426.988 1052.03 407.1C1061.41 392.009 1069.1 375.524 1075.11 358.773C1084.27 333.34 1090.1 306.861 1092.17 279.734Z" stroke="white" stroke-width="2" stroke-miterlimit="10"/>
<path d="M1845.83 865.449C1849.2 832.163 1851.94 803.359 1855.14 774.606C1856.2 765.043 1858.15 755.531 1860.26 746.134C1866.25 719.223 1887.75 714.177 1907.77 717.796C1934.46 722.627 1952.03 738.597 1961.01 764.429C1969.09 787.721 1967.95 811.112 1963.68 834.769C1958.39 864.137 1950.2 892.409 1931.76 916.581C1923.95 926.791 1914.48 935.208 1901.84 939.292C1881.14 945.982 1861.95 937.383 1855.94 916.432C1850.81 898.552 1848.58 879.859 1845.83 865.449Z" stroke="white" stroke-width="2" stroke-miterlimit="10"/>
<path d="M1751.91 592.505C1766.36 593.517 1781.61 601.752 1793.24 616.743C1802.52 628.712 1808.71 642.076 1811.36 657.101C1813.71 670.415 1808.87 681.671 1797.05 688.594C1785.15 695.566 1771.75 696.512 1758.62 696.097C1748.86 695.799 1739.07 693.093 1729.5 690.619C1698.56 682.584 1687.42 649.149 1703.34 619.781C1712.65 602.598 1726.86 592.272 1751.91 592.505Z" stroke="white" stroke-width="2" stroke-miterlimit="10"/>
<path d="M1694.76 1201.2C1673.46 1198.11 1642.94 1195.42 1617.74 1175.68C1604.99 1165.7 1600.64 1151.28 1597.74 1136.02C1592.64 1109.12 1596.03 1083.13 1606.52 1058.26C1613.74 1041.16 1628.68 1034.82 1646.51 1039.38C1682.45 1048.58 1706.83 1072.52 1726.38 1102.45C1737.32 1119.2 1743.35 1137.96 1745.64 1157.53C1748.51 1182 1735.69 1203.34 1694.76 1201.2Z" stroke="white" stroke-width="2" stroke-miterlimit="10"/>
<path d="M1151.29 1029.47C1159.89 1031.11 1168.77 1031.88 1177.02 1034.57C1192.18 1039.53 1198.62 1053.19 1195.24 1068.75C1187.28 1105.31 1158.5 1123.1 1120.01 1117.16C1107.03 1115.15 1093.83 1112.2 1081.75 1107.2C1055.12 1096.19 1055.45 1073.28 1075.77 1055.87C1096.32 1038.27 1122.5 1030.72 1151.29 1029.47Z" stroke="white" stroke-width="2" stroke-miterlimit="10"/>
<path d="M623.466 1051.98C627.517 1035.17 630.954 1018.18 635.735 1001.58C645.364 968.145 654.992 934.66 666.215 901.739C670 890.666 677.537 880.29 685.307 871.276C696.579 858.194 714.176 855.837 730.164 863.025C748.508 871.259 760.577 885.935 769.31 903.217C779.387 923.189 789.281 943.359 797.316 964.194C806.547 988.083 803.725 1010.21 784.201 1029.52C761.291 1052.16 732.637 1064.45 703.917 1076.52C691.366 1081.8 677.537 1084.59 663.99 1086.75C641.977 1090.25 622.47 1079.37 625.807 1052.56C625.027 1052.35 624.247 1052.16 623.466 1051.98Z" stroke="white" stroke-width="2" stroke-miterlimit="10"/>
<path d="M1379.31 1177.69C1371.91 1176.33 1361.28 1175.6 1351.49 1172.36C1328.16 1164.64 1319.18 1141.13 1328.55 1115.96C1338.37 1089.55 1356.75 1070.63 1380.57 1056.88C1400.6 1045.33 1421.86 1036.59 1445.68 1037.42C1478.36 1038.57 1494.29 1060.96 1492.72 1092.71C1490.18 1143.72 1445.6 1170.15 1406.34 1175.11C1398.42 1176.09 1390.45 1176.63 1379.31 1177.69Z" stroke="white" stroke-width="2" stroke-miterlimit="10"/>
<path d="M302.777 202.67C288.483 201.658 277.31 195.233 270.122 182.998C262.933 170.779 265.307 158.643 272.247 146.956C279.668 134.438 291.388 126.486 302.976 118.601C329.887 100.289 356.964 82.2103 384.273 64.4966C390.897 60.1968 398.401 56.9263 405.938 54.4859C419.999 49.9205 430.475 59.9976 427.868 74.8559C425.345 89.2327 418.074 101.202 408.528 111.777C398.002 123.448 386.846 134.538 376.138 146.043C365.995 156.917 356.565 168.521 345.924 178.864C333.821 190.568 321.038 201.774 302.777 202.67Z" stroke="white" stroke-width="2" stroke-miterlimit="10"/>
<path d="M720.784 134.604C722.079 113.521 736.273 100.887 756.527 105.137C793.996 112.989 830.054 146.192 831.2 189.439C832.163 226.244 808.223 261.489 773.991 272.38C762.121 276.148 751.563 269.972 748.89 257.654C746.217 245.286 745.752 232.437 742.88 220.135C738.414 201.093 732.621 182.35 727.607 163.424C725.083 153.895 723.041 144.217 720.784 134.604Z" stroke="white" stroke-width="2" stroke-miterlimit="10"/>
<path d="M349.676 864.768C382.829 862.593 415.833 860.103 448.853 858.36C469.721 857.248 490.555 857.961 507.97 872.023C521.301 882.781 525.784 897.44 525.037 913.958C523.758 942.429 510.062 966.12 495.553 989.445C475.465 1021.73 452.671 1052 423.967 1077.1C385.535 1110.72 347.103 1144.45 301.216 1168.14C268.229 1185.18 239.26 1178.14 213.428 1153.75C195.598 1136.92 180.126 1118.39 169.318 1096.21C153.248 1063.25 154.393 1029.34 164.404 995.288C174.498 961.006 190.369 929.447 213.328 901.922C232.304 879.178 257.322 866.727 286.79 865.034C307.707 863.789 328.741 864.768 349.676 864.768ZM277.211 1120.33C277.41 1121.08 277.626 1121.82 277.825 1122.59C289.944 1119.28 302.478 1117.04 314.082 1112.44C340.064 1102.17 360.666 1084.12 379.326 1063.82C401.406 1039.8 417.609 1012.6 423.619 979.965C428.118 955.528 419.02 938.512 395.678 929.431C365.331 917.61 334.22 910.239 301.25 912.763C281.726 914.257 263.647 919.603 248.092 931.489C218.425 954.15 201.425 984.149 195.166 1021.17C186.002 1075.39 234.03 1123.04 277.211 1120.33Z" stroke="white" stroke-width="2" stroke-miterlimit="10"/>
<path d="M1449.04 156.053C1466.45 154.46 1483.39 159.755 1496.9 174.73C1505.78 184.575 1510.33 196.179 1512.06 208.995C1519.36 263.465 1476.91 322.682 1419.49 329.87C1396.36 332.759 1374.03 331.115 1352.29 321.885C1332.06 313.285 1320.64 297.78 1314.43 277.476C1309.02 259.729 1308.59 241.501 1310.08 223.322C1312.28 196.777 1328.13 181.271 1352.58 172.904C1372.22 166.197 1426.53 156.053 1449.04 156.053ZM1418.87 230.76C1413.03 231.075 1405.86 233.814 1402.82 241.285C1401.23 245.22 1401.14 252.574 1403.6 254.732C1407.57 258.202 1414.19 260.111 1419.67 260.045C1427.74 259.945 1436.34 249.088 1435.72 241.982C1435.16 235.226 1429.33 230.793 1418.87 230.76Z" stroke="white" stroke-width="2" stroke-miterlimit="10"/>
<path d="M977.757 756.975C977.508 740.49 988.415 733.633 1000.8 739.361C1018.58 747.562 1027.54 762.47 1032.04 780.615C1033.94 788.219 1030.43 794.029 1024.51 798.545C1018.99 802.745 1013.25 802.363 1007.47 799.109C989.843 789.165 980.928 773.477 977.757 756.975Z" stroke="white" stroke-width="2" stroke-miterlimit="10"/>
<path d="M1543.68 595.343C1544.5 604.175 1538.95 610.202 1531.68 613.738C1528.54 615.265 1522.25 613.97 1519.3 611.596C1507.99 602.515 1511.28 583.291 1524.61 577.314C1533.24 573.446 1543.62 582.992 1543.68 595.343Z" stroke="white" stroke-width="2" stroke-miterlimit="10"/>
<path d="M1092.17 279.734C1090.1 306.861 1084.26 333.34 1075.12 358.79C1069.11 375.524 1061.43 392.026 1052.05 407.117C1039.7 427.005 1020.62 440.701 999.87 450.728C963.596 468.276 926.807 484.795 889.77 500.666C877.202 506.044 863.373 508.95 849.312 504.185C832.727 498.557 825.555 486.056 828.959 468.675C831.831 454.032 838.837 441.315 849.495 431.504C869.117 413.408 889.969 396.674 909.957 378.961C929.148 361.944 948.041 344.579 966.784 327.064C988.98 306.346 1010.38 284.747 1033.17 264.726C1041.19 257.687 1051.87 252.823 1062.14 249.386C1078.1 244.041 1091.34 254.516 1092.17 271.45C1092.31 274.206 1092.17 276.978 1092.17 279.734Z" stroke="white" stroke-width="2" stroke-miterlimit="10"/>
<path d="M277.21 1120.33C234.03 1123.04 186.002 1075.39 195.166 1021.15C201.425 984.132 218.408 954.133 248.092 931.472C263.647 919.602 281.726 914.257 301.249 912.746C334.236 910.206 365.331 917.594 395.678 929.414C419.02 938.512 428.117 955.511 423.618 979.949C417.609 1012.57 401.406 1039.76 379.326 1063.8C360.666 1084.11 340.047 1102.15 314.082 1112.43C302.478 1117.03 289.944 1119.27 277.825 1122.57C277.625 1121.84 277.41 1121.08 277.21 1120.33ZM286.474 1058.92C306.977 1058.89 324.807 1044.35 331.912 1021.85C335.797 1009.57 330.783 994.89 320.192 987.453C297.78 971.731 265.689 980.928 254.749 1006.23C242.945 1033.5 258.268 1058.95 286.474 1058.92Z" stroke="white" stroke-width="2" stroke-miterlimit="10"/>
<path d="M1418.87 230.76C1429.33 230.793 1435.16 235.226 1435.72 241.982C1436.32 249.088 1427.74 259.945 1419.67 260.045C1414.21 260.111 1407.57 258.202 1403.6 254.732C1401.14 252.591 1401.23 245.236 1402.82 241.285C1405.86 233.814 1413.03 231.075 1418.87 230.76Z" stroke="white" stroke-width="2" stroke-miterlimit="10"/>
<path d="M286.474 1058.92C258.268 1058.95 242.945 1033.5 254.765 1006.23C265.722 980.928 297.796 971.731 320.208 987.453C330.8 994.89 335.797 1009.57 331.929 1021.85C324.807 1044.35 306.977 1058.89 286.474 1058.92Z" stroke="white" stroke-width="2" stroke-miterlimit="10"/>
</g>
</g>
</pattern></defs>
</svg>
